Coordinates
version=1
nRows=14
nColumns=40
inDegrees=yes

Units are S.I. units (second, meters, Newtons, ...)
Angles are in degrees.

endheader
time	pelvis_tilt	pelvis_list	pelvis_rotation	pelvis_tx	pelvis_ty	pelvis_tz	hip_flexion_r	hip_adduction_r	hip_rotation_r	knee_angle_r	knee_angle_r_beta	ankle_angle_r	subtalar_angle_r	mtp_angle_r	hip_flexion_l	hip_adduction_l	hip_rotation_l	knee_angle_l	knee_angle_l_beta	ankle_angle_l	subtalar_angle_l	mtp_angle_l	lumbar_extension	lumbar_bending	lumbar_rotation	arm_flex_r	arm_add_r	arm_rot_r	elbow_flex_r	pro_sup_r	wrist_flex_r	wrist_dev_r	arm_flex_l	arm_add_l	arm_rot_l	elbow_flex_l	pro_sup_l	wrist_flex_l	wrist_dev_l
     48.60500000	     -4.62479226	     -4.67281147	      4.81683798	      1.04069940	      0.92790235	      0.43096531	     -0.13311620	     -1.32901645	    -16.39272370	     18.23777924	     18.23777924	     15.16827123	      4.02437471	     -5.65603852	     24.02819536	     -6.74445713	     -2.49898708	     24.69234671	     24.69234671	      8.44974708	    -11.89890951	      5.81375813	     -7.78413748	      5.72995585	      4.21973103	     29.11587455	    -17.43870990	    -15.25438001	     63.14170061	     45.83676801	      0.00000000	      0.00000000	      3.09336451	    -10.46084496	      1.33745647	     28.94605893	     44.98284651	      0.00000000	      0.00000000
     48.61800000	     -4.56222404	     -4.58481530	      4.54187566	      1.04087979	      0.92873899	      0.42755799	      0.48228881	     -1.98607324	    -16.03032433	     20.16321814	     20.16321814	     14.83128536	      3.43085464	     -6.39341147	     23.37806861	     -6.55729565	     -2.91006709	     24.51432662	     24.51432662	      8.75211903	    -11.83017047	      5.76072045	     -7.79787989	      5.72156515	      4.29814878	     27.99438216	    -17.37056149	    -14.89468185	     60.57044269	     45.90241742	      0.00000000	      0.00000000	      4.44240411	    -10.62606640	      1.52228883	     29.41248499	     44.98409048	      0.00000000	      0.00000000
     48.63100000	     -4.57109485	     -4.63311457	      4.24179407	      1.04087610	      0.92938241	      0.42437574	      1.25167633	     -2.43971625	    -15.40635443	     22.02734302	     22.02734302	     13.58144675	      2.16669944	     -9.15710708	     22.83281835	     -6.48976277	     -3.14900611	     24.33420278	     24.33420278	      9.05963797	    -11.87986909	      5.66151053	     -7.62108240	      5.83068472	      3.62347448	     28.68698472	    -16.73033002	    -13.51020740	     53.91834924	     46.05610966	      0.00000000	      0.00000000	      5.44164215	    -11.10824545	      2.66147913	     29.60937128	     44.87308478	      0.00000000	      0.00000000
     48.64400000	     -4.49976524	     -4.53519842	      3.90597401	      1.04074008	      0.92995596	      0.42124429	      2.34596263	     -3.22121290	    -14.92966925	     24.76905911	     24.76905911	     13.07424538	      1.42155328	    -10.02665285	     22.19234757	     -6.31179271	     -3.57689882	     24.17384955	     24.17384955	      9.38167488	    -11.79168301	      5.52169880	     -7.77343027	      5.79186646	      3.78042949	     27.20383420	    -16.65307621	    -13.23213959	     52.42601158	     46.08515723	      0.00000000	      0.00000000	      6.78799011	    -11.36947369	      2.65692277	     30.47138016	     44.90165537	      0.00000000	      0.00000000
     48.65700000	     -4.53408109	     -4.57866835	      3.56058794	      1.04043072	      0.93021599	      0.41841470	      3.62929269	     -3.72973956	    -14.08934943	     27.39265690	     27.39265690	     11.28877164	     -0.46272176	    -13.71749036	     21.72005342	     -6.26577810	     -3.84588751	     24.04644369	     24.04644369	      9.62462655	    -11.85684880	      5.08279929	     -7.68176670	      5.86193306	      3.48955918	     26.98357067	    -16.33867191	    -11.90819808	     47.60982111	     46.15791760	      0.00000000	      0.00000000	      7.72084647	    -11.98333731	      3.60010561	     31.74484987	     44.84877997	      0.00000000	      0.00000000
     48.67000000	     -4.52394491	     -4.53423554	      3.21414171	      1.04000492	      0.93042156	      0.41568538	      5.20598881	     -4.44013559	    -13.37704492	     30.72670443	     30.72670443	     10.35546476	     -1.64843133	    -14.52481401	     21.22230675	     -6.15426324	     -4.21977056	     23.96400324	     23.96400324	      9.95092937	    -11.84119372	      4.89089102	     -7.72911714	      5.81681512	      3.73591090	     25.34567425	    -16.30321615	    -11.61489022	     45.98957458	     46.18725408	      0.00000000	      0.00000000	      9.18304218	    -12.27596892	      3.59107209	     32.62809060	     44.88545280	      0.00000000	      0.00000000
     48.68300000	     -4.45056580	     -4.46461184	      2.86542149	      1.03941316	      0.93053422	      0.41313321	      6.89942744	     -5.13802822	    -12.50768076	     34.29037182	     34.29037182	      9.23086508	     -2.97317232	    -15.27242655	     20.70296575	     -6.03070181	     -4.57636875	     23.94966085	     23.94966085	     10.33892832	    -11.77916975	      4.63037981	     -7.91633999	      5.76633389	      3.82248655	     23.84476594	    -16.11795488	    -11.27501998	     44.30926154	     46.21891035	      0.00000000	      0.00000000	     10.66531419	    -12.67831731	      3.59716248	     33.40291275	     44.91667876	      0.00000000	      0.00000000
     48.69600000	     -4.39371609	     -4.52207529	      2.53715374	      1.03872303	      0.93052655	      0.41091932	      8.65918863	     -5.52229140	    -11.40330195	     37.71451178	     37.71451178	      7.30650375	     -5.17530219	    -17.15121099	     20.27589553	     -6.08929942	     -4.97834349	     24.01663397	     24.01663397	     10.62603055	    -11.62014518	      3.91454262	     -7.97595110	      5.81721701	      3.49765348	     23.47208526	    -15.76219019	     -9.94870290	     39.83616623	     46.28231221	      0.00000000	      0.00000000	     11.83699223	    -13.45341595	      4.50339728	     34.45148194	     44.88712887	      0.00000000	      0.00000000
     48.70900000	     -4.32008180	     -4.41909943	      2.21885040	      1.03795603	      0.93043668	      0.40879859	     10.57588430	     -6.15648324	    -10.49503261	     41.45696942	     41.45696942	      5.97481073	     -6.32895934	    -17.20597201	     19.80530649	     -5.96472623	     -5.38212278	     24.05164892	     24.05164892	     11.02881634	    -11.47768221	      3.65179692	     -8.14010214	      5.69720863	      3.45200868	     21.75033825	    -15.46726326	     -9.71289294	     38.64204047	     46.29903762	      0.00000000	      0.00000000	     13.29637802	    -13.97138833	      4.38941732	     35.26034449	     44.93341778	      0.00000000	      0.00000000
     48.72200000	     -4.18690822	     -4.36769870	      1.94840375	      1.03717792	      0.93041562	      0.40694851	     12.43007004	     -6.62511757	     -9.57124576	     45.04722459	     45.04722459	      4.53467304	     -7.48717843	    -16.93550700	     19.33060565	     -5.92529289	     -5.80737654	     24.16545458	     24.16545458	     11.43554373	    -11.26488559	      3.34188343	     -8.36913254	      5.58213274	      3.33812422	     20.05374124	    -15.14098488	     -9.45366958	     37.38274134	     46.31816801	      0.00000000	      0.00000000	     14.79060464	    -14.54416736	      4.28100058	     36.02429791	     44.97672501	      0.00000000	      0.00000000
     48.73500000	     -4.08715717	     -4.45150372	      1.60556598	      1.03633656	      0.93025994	      0.40560850	     14.45343893	     -6.72990908	     -8.38831089	     48.71093479	     48.71093479	      3.93588631	     -8.37754529	    -13.86998409	     18.98438800	     -6.18407759	     -6.58259391	     24.47130250	     24.47130250	     11.91070721	    -10.49741049	      2.53167636	     -8.50083822	      5.59144186	      3.26786336	     18.97859076	    -14.92659309	     -8.25777883	     34.13740130	     46.34290492	      0.00000000	      0.00000000	     16.02947145	    -15.30580376	      4.90283663	     37.16437473	     44.99409738	      0.00000000	      0.00000000
     48.74800000	     -3.97044160	     -4.39938925	      1.42434269	      1.03552289	      0.93033536	      0.40411920	     16.21283142	     -7.04872795	     -7.60603726	     51.76831033	     51.76831033	      2.66943705	     -9.08880628	    -13.44357293	     18.45870492	     -6.12128984	     -6.89026384	     24.41197106	     24.41197106	     12.26907652	    -10.22766625	      2.32937406	     -8.65510011	      5.47286100	      2.88422989	     17.17369336	    -14.43975208	     -8.06799550	     33.23216368	     46.35052807	      0.00000000	      0.00000000	     17.49117790	    -16.00672367	      4.70847207	     37.84481168	     45.04610942	      0.00000000	      0.00000000
     48.76100000	     -3.75509450	     -4.61361049	      1.22531869	      1.03472577	      0.93060936	      0.40316218	     17.83736711	     -6.85251326	     -6.71608921	     54.59934458	     54.59934458	      2.40528445	     -9.41068347	    -10.22052793	     18.00004480	     -6.54647806	     -7.62214577	     24.69659808	     24.69659808	     12.78520097	     -9.18949648	      1.72324696	     -8.99216620	      5.54744573	      3.05694830	     15.23790182	    -14.36016765	     -7.42795119	     31.59886143	     46.35040912	      0.00000000	      0.00000000	     19.08509975	    -16.43900026	      4.67632439	     39.02234458	     45.11838906	      0.00000000	      0.00000000
     48.77400000	     -3.70805233	     -4.58243237	      0.98826123	      1.03392669	      0.93071933	      0.40213193	     19.62767851	     -6.99751927	     -5.95046022	     57.19673747	     57.19673747	      2.39042590	     -9.20430708	     -7.31130235	     17.49971158	     -6.56915337	     -8.14495098	     24.58137870	     24.58137870	     13.20132103	     -8.68262994	      1.51456412	     -9.02023436	      5.49358748	      2.78015267	     13.39952692	    -14.01291813	     -6.78949309	     30.61190371	     46.32316912	      0.00000000	      0.00000000	     20.31314686	    -17.12579001	      4.52773815	     39.84166480	     45.20475149	      0.00000000	      0.00000000
